<?xml version="1.0" encoding="UTF-8" standalone="no"?>
<!-- Created with Inkscape (http://www.inkscape.org/) -->

<svg
   width="78.9599mm"
   height="46.195465mm"
   viewBox="0 0 78.9599 46.195465"
   version="1.1"
   id="svg5"
   inkscape:version="1.1.1 (c3084ef, 2021-09-22)"
   sodipodi:docname="artist-portfolio-mk.svg"
   xmlns:inkscape="http://www.inkscape.org/namespaces/inkscape"
   xmlns:sodipodi="http://sodipodi.sourceforge.net/DTD/sodipodi-0.dtd"
   xmlns="http://www.w3.org/2000/svg"
   xmlns:svg="http://www.w3.org/2000/svg">
  <sodipodi:namedview
     id="namedview7"
     pagecolor="#505050"
     bordercolor="#eeeeee"
     borderopacity="1"
     inkscape:pageshadow="0"
     inkscape:pageopacity="0"
     inkscape:pagecheckerboard="0"
     inkscape:document-units="mm"
     showgrid="false"
     inkscape:zoom="0.3372916"
     inkscape:cx="1058.4313"
     inkscape:cy="152.68687"
     inkscape:window-width="1309"
     inkscape:window-height="755"
     inkscape:window-x="0"
     inkscape:window-y="23"
     inkscape:window-maximized="0"
     inkscape:current-layer="layer1" />
  <defs
     id="defs2" />
  <g
     inkscape:label="Layer 1"
     inkscape:groupmode="layer"
     id="layer1"
     transform="translate(-76.451977,-83.9542)">
    <path
       style="fill:#000000;stroke-width:0.128329"
       d="m 77.465287,129.96733 c -0.21906,-0.0954 -0.53667,-0.3674 -0.7058,-0.60454 l -0.30751,-0.43115 v -21.88566 c 0,-20.878423 0.0107,-21.901923 0.23155,-22.239053 0.12735,-0.19437 0.41609,-0.46777 0.64164,-0.60757 0.40125,-0.2487 0.62311,-0.25317 10.29139,-0.20727 9.40219,0.0447 9.94982,0.06 11.29448,0.31693 3.690793,0.70517 6.338693,2.01768 8.463543,4.19519 2.33052,2.38828 3.56383,5.51477 3.74757,9.50024 0.2734,5.930353 -2.31604,10.880973 -6.9539,13.294773 -0.59678,0.3106 -1.08574,0.59427 -1.08657,0.63039 -7.3e-4,0.0361 0.47489,0.68268 1.05719,1.43678 0.58229,0.75411 2.01155,2.62007 3.17613,4.14657 1.16458,1.5265 2.8337,3.70959 3.70915,4.85131 3.17679,4.14305 4.02178,5.28532 4.14022,5.59684 0.28836,0.75845 -0.22506,1.72697 -1.0884,2.05316 -0.24919,0.0941 -5.92193,0.13494 -18.286813,0.13147 -14.76531,-0.004 -17.99579,-0.0356 -18.32387,-0.17841 z m 43.075463,-0.0511 c -0.24047,-0.12897 -0.54275,-0.43124 -0.67172,-0.67172 -0.22446,-0.41854 -0.23448,-1.36757 -0.23429,-22.19093 1.3e-4,-20.453393 0.0136,-21.780543 0.22458,-22.202843 0.46572,-0.93228 0.0904,-0.89814 9.84901,-0.89588 8.59973,0.002 10.19357,0.0615 12.12705,0.45268 6.24653,1.26383 9.62791,5.59604 9.62389,12.33006 -0.002,2.75878 -0.65078,5.182273 -1.87996,7.018673 -0.37722,0.56358 -0.68586,1.04389 -0.68586,1.06736 0,0.0235 0.33244,0.21048 0.73875,0.41558 2.77221,1.39942 4.69517,4.04937 5.49788,7.57646 0.3136,1.37796 0.38205,4.9776 0.12097,6.36162 -1.19409,6.32994 -6.22429,10.1404 -14.31397,10.84305 -0.81168,0.0705 -5.63452,0.12868 -10.71744,0.12928 -8.70657,0.001 -9.26697,-0.0125 -9.67889,-0.23339 z"
       id="path836" />
  </g>
</svg>
