<?xml version="1.0" encoding="UTF-8" standalone="no"?>
<!-- Created with Inkscape (http://www.inkscape.org/) -->

<svg
   width="86.08007mm"
   height="92.053322mm"
   viewBox="0 0 86.080071 92.053322"
   version="1.1"
   id="svg5"
   inkscape:version="1.1.1 (c3084ef, 2021-09-22)"
   sodipodi:docname="saatchi.svg"
   xmlns:inkscape="http://www.inkscape.org/namespaces/inkscape"
   xmlns:sodipodi="http://sodipodi.sourceforge.net/DTD/sodipodi-0.dtd"
   xmlns="http://www.w3.org/2000/svg"
   xmlns:svg="http://www.w3.org/2000/svg">
  <sodipodi:namedview
     id="namedview7"
     pagecolor="#505050"
     bordercolor="#eeeeee"
     borderopacity="1"
     inkscape:pageshadow="0"
     inkscape:pageopacity="0"
     inkscape:pagecheckerboard="0"
     inkscape:document-units="mm"
     showgrid="false"
     inkscape:zoom="0.54836828"
     inkscape:cx="243.44953"
     inkscape:cy="119.44527"
     inkscape:window-width="1309"
     inkscape:window-height="755"
     inkscape:window-x="46"
     inkscape:window-y="23"
     inkscape:window-maximized="0"
     inkscape:current-layer="layer1" />
  <defs
     id="defs2" />
  <g
     inkscape:label="Layer 1"
     inkscape:groupmode="layer"
     id="layer1"
     transform="translate(-377.22869,-43.114762)">
    <g
       id="g17532"
       transform="translate(-117.43618,-2.1368208)">
      <g
         id="g17575" />
    </g>
    <g
       id="g51055">
      <path
         id="path43345"
         style="opacity:1;fill:#241710;fill-opacity:0.651515;stroke:none;stroke-width:0.264583px;stroke-linecap:butt;stroke-linejoin:miter;stroke-opacity:1"
         d="m 432.15441,52.247744 c -5.82083,0.0623 -12.6908,1.31118 -20.6623,4.53151 -29.76273,12.02355 -37.95461,37.88278 -32.3882,52.709946 5.06468,13.4908 31.24513,24.77667 59.68111,6.689 3.00121,-1.90903 5.78932,-3.93409 8.18141,-6.07818 20.58337,-18.449356 18.73799,-38.130726 10.6717,-47.543866 0,0 -8.02121,-10.49521 -25.48372,-10.30841 z m 0.46147,5.51232 c 14.10448,0.1228 20.43493,8.20002 20.43493,8.20002 2.20138,2.42602 4.6484,6.50131 4.5651,11.45615 -0.16424,9.76566 -4.39954,23.264196 -21.16098,33.610346 -28.24591,17.43504 -47.70436,6.47727 -52.21749,-3.77807 -4.70017,-10.680336 2.83359,-35.216426 29.95425,-45.740866 7.20392,-2.79555 13.32258,-3.79199 18.42419,-3.74758 z" />
      <g
         id="g43351"
         transform="rotate(-60.097757,382.52819,83.558459)"
         style="opacity:0.98;fill:#241710;fill-opacity:0.651515;stroke:none">
        <g
           id="g43349"
           style="fill:#241710;fill-opacity:0.651515;stroke:none">
          <path
             id="path43347"
             style="fill:#241710;fill-opacity:0.651515;stroke:none;stroke-width:0.999999px;stroke-linecap:butt;stroke-linejoin:miter;stroke-opacity:1"
             d="m 764.08203,-48.507812 c -4.64533,0.09063 -9.15256,0.556192 -13.46875,1.371093 0,0 -88.13118,10.123706 -106.00586,138.865235 l 5.02539,2.128906 c 0,0 -6.00814,8.375778 -6.21484,10.507808 -11.01959,113.65795 55.78036,184.84172 112.99219,194.23633 47.39305,7.7823 120.1088,-41.95281 132.73437,-140.95898 l -5.22998,-1.94141 6.51123,-10.51953 c 0,0 0.80924,-19.26892 0.35156,-29.51562 -0.59989,-13.43011 -1.98225,-26.380562 -4.5,-38.257817 C 866.64386,-15.211383 808.98693,-49.383896 764.08203,-48.507812 Z m 4.71485,21.216796 c 9.62846,0.100347 20.4128,2.221116 30.46093,8.226563 31.68662,18.93833982 65.84691,57.999976 69.57617,132.353513 2.81611,56.14787 -16.95898,97.82032 -16.95898,97.82032 l 3.90039,3.04492 c 0,0 -5.45978,4.06526 -7.72514,5.56995 -25.76754,47.04714 -62.91234,60.68006 -89.30806,57.8363 -43.84885,-4.72411 -110.04377,-75.63657 -93.42578,-184.324222 3.3561,-21.95008 8.93733,-39.885117 15.70898,-54.53125 l -4.35138,-3.880677 c 3.5641,-2.759611 6.38252,-4.756972 9.99982,-7.14276 27.02009,-47.703371 66.44922,-53.375 66.44922,-53.375 4.53613,-0.990572 9.89674,-1.657864 15.67383,-1.597657 z"
             transform="matrix(0.13190053,0.22936127,-0.22936127,0.13190053,324.19507,-73.250484)"
             sodipodi:nodetypes="sccccscccsssssscccssccccs" />
        </g>
      </g>
      <g
         id="g47417"
         transform="rotate(-119.52641,399.6996,97.192389)"
         style="opacity:0.98;fill:#241710;fill-opacity:0.651515;stroke:none">
        <g
           id="g47415"
           style="fill:#241710;fill-opacity:0.651515;stroke:none">
          <path
             id="path47413"
             style="fill:#241710;fill-opacity:0.651515;stroke:none;stroke-width:0.999999px;stroke-linecap:butt;stroke-linejoin:miter;stroke-opacity:1"
             d="m 764.08203,-48.507812 c -4.64533,0.09063 -9.15256,0.556192 -13.46875,1.371093 0,0 -88.13118,10.123706 -106.00586,138.865235 l 6.21437,2.434817 c -1.89828,3.105049 -3.77587,6.114897 -7.66412,13.045837 -9.64216,112.00085 56.51934,182.07639 113.25249,191.39239 47.39305,7.78229 120.1088,-41.95281 132.73437,-140.95898 l -5.76286,-1.99598 c 1.96052,-3.20437 2.57102,-3.61574 7.08252,-11.43001 0.15527,-4.02444 0.70966,-19.67336 0.31315,-28.55057 -0.59987,-13.43011 -1.98225,-26.380562 -4.5,-38.257817 C 866.64386,-15.211383 808.98693,-49.383896 764.08203,-48.507812 Z m 4.71485,21.216796 c 9.62846,0.100347 20.4128,2.221116 30.46093,8.226563 31.68662,18.93833982 65.84691,57.999976 69.57617,132.353513 2.81611,56.14787 -16.95898,97.82032 -16.95898,97.82032 l 4.35896,3.47983 c 0,0 -3.10369,2.4171 -8.49465,6.34665 -23.99266,43.1424 -62.6014,59.46845 -88.99712,56.62469 -43.84885,-4.72411 -110.04377,-75.63657 -93.42578,-184.324222 3.3561,-21.95008 8.93733,-39.885117 15.70898,-54.53125 l -3.9654,-2.961225 9.90039,-7.242187 c 27.76403,-51.672993 66.16267,-54.195025 66.16267,-54.195025 4.53613,-0.990572 9.89674,-1.657864 15.67383,-1.597657 z"
             transform="matrix(0.13190053,0.22936127,-0.22936127,0.13190053,324.19507,-73.250484)"
             sodipodi:nodetypes="sccccscccsssssscccssccccs" />
        </g>
      </g>
    </g>
  </g>
</svg>
